<?xml version="1.0" encoding="utf-8"?><svg id="bgpattern" image-rendering="auto" baseProfile="basic" version="1.1" x="0px" y="0px" width="1558" height="962" xmlns="http://www.w3.org/2000/svg" xmlns:xlink="http://www.w3.org/1999/xlink"><g id="Scene-1" overflow="visible"><g id="circle21" transform="translate(1499.35 867.45)"><animate attributeName="opacity" repeatCount="indefinite" dur="4.1s" keyTimes="0;.64999;.829;.992;1" values="1;1;0;1;1"/><path fill="#E0ECEF" stroke="none" d="M6 -6.05Q3.5 -8.5 0 -8.5 -3.5 -8.5 -6 -6.05 -8.5 -3.55 -8.5 0 -8.5 .55 -8.45 1.1 -8.1 3.9 -6 6 -3.5 8.5 0 8.5 3.5 8.5 6 6 8.1 3.9 8.45 1.1 8.5 .55 8.5 0 8.5 -3.55 6 -6.05Z"/></g><g id="circle20" transform="translate(703.45 539.6)"><animate attributeName="opacity" repeatCount="indefinite" dur="4.1s" keyTimes="0;.58499;.748;.902;1" values="1;1;0;1;1"/><path fill="#E0ECEF" stroke="none" d="M6 -6.05Q3.5 -8.5 0 -8.5 -3.5 -8.5 -6 -6.05 -8.5 -3.55 -8.5 0 -8.5 3.5 -6 6 -3.5 8.5 0 8.5 3.5 8.5 6 6 8.5 3.5 8.5 0 8.5 -3.55 6 -6.05Z"/></g><g id="circle19" transform="translate(898.9 64.05)"><animate attributeName="opacity" repeatCount="indefinite" dur="4.1s" keyTimes="0;.52799;.691;.854;1" values="1;1;0;1;1"/><path fill="#E0ECEF" stroke="none" d="M7.75 -7.8Q4.55 -11 0 -11 -4.55 -11 -7.8 -7.8 -11 -4.55 -11 0 -11 4.55 -7.8 7.75 -4.55 11 0 11 4.55 11 7.75 7.75 11 4.55 11 0 11 -4.55 7.75 -7.8Z"/></g><g id="circle18" transform="translate(326.5 225.6)"><animate attributeName="opacity" repeatCount="indefinite" dur="4.1s" keyTimes="0;.47999;.65;.813;1" values="1;1;0;1;1"/><path fill="#E0ECEF" stroke="none" d="M6 -6.05Q3.5 -8.5 0 -8.5 -3.5 -8.5 -6 -6.05 -8.5 -3.55 -8.5 0 -8.5 3.5 -6 6 -3.5 8.5 0 8.5 3.5 8.5 6 6 8.5 3.5 8.5 0 8.5 -3.55 6 -6.05Z"/></g><g id="circle17" transform="translate(1292.85 386.05)"><animate attributeName="opacity" repeatCount="indefinite" dur="4.1s" keyTimes="0;.42299;.602;.772;1" values="1;1;0;1;1"/><path fill="#F4F7F7" stroke="none" d="M7.75 -7.8Q4.55 -11 0 -11 -4.55 -11 -7.8 -7.8 -11 -4.55 -11 0 -11 4.55 -7.8 7.75 -4.55 11 0 11 4.55 11 7.75 7.75 11 4.55 11 0 11 -4.55 7.75 -7.8Z"/></g><g id="circle16" transform="translate(127 64.05)"><animate attributeName="opacity" repeatCount="indefinite" dur="4.1s" keyTimes="0;.37399;.553;.732;1" values="1;1;0;1;1"/><path fill="#E0ECEF" stroke="none" d="M7.75 -7.8Q4.55 -11 0 -11 -4.55 -11 -7.8 -7.8 -11 -4.55 -11 0 -11 4.55 -7.8 7.75 -4.55 11 0 11 4.55 11 7.75 7.75 11 4.55 11 0 11 -4.55 7.75 -7.8Z"/></g><g id="circle15" transform="translate(519.95 64.05)"><animate attributeName="opacity" repeatCount="indefinite" dur="4.1s" keyTimes="0;.32499;.504;.683;1" values="1;1;0;1;1"/><path fill="#E0ECEF" stroke="none" d="M7.75 -7.8Q4.55 -11 0 -11 -4.55 -11 -7.8 -7.8 -11 -4.55 -11 0 -11 4.55 -7.8 7.75 -4.55 11 0 11 4.55 11 7.75 7.75 11 4.55 11 0 11 -4.55 7.75 -7.8Z"/></g><g id="circle14" transform="translate(897.9 386.05)"><animate attributeName="opacity" repeatCount="indefinite" dur="4.1s" keyTimes="0;.27599;.463;.65;1" values="1;1;0;1;1"/><path fill="#FDFBCD" stroke="none" d="M7.75 -7.8Q4.55 -11 0 -11 -4.55 -11 -7.8 -7.8 -11 -4.55 -11 0 -11 4.55 -7.8 7.75 -4.55 11 0 11 4.55 11 7.75 7.75 11 4.55 11 0 11 -4.55 7.75 -7.8Z"/></g><g id="circle13" transform="translate(326.5 539.6)"><animateTransform attributeName="transform" additive="replace" type="translate" repeatCount="indefinite" dur="4.1s" keyTimes="0;.22799;.415;.593;1" values="326.5,539.6;326.5,539.6;326.529,539.615;326.5,539.6;326.5,539.6"/><animateTransform attributeName="transform" additive="sum" type="scale" repeatCount="indefinite" dur="4.1s" keyTimes="0;.22799;.415;.593;1" values="1,1;1,1;1.294,1.294;1,1;1,1"/><animateTransform attributeName="transform" additive="sum" type="translate" repeatCount="indefinite" dur="4.1s" keyTimes="0;.22799;.415;.593;1" values="0,0;0,0;-.1,-.05;0,0;0,0"/><animate attributeName="opacity" repeatCount="indefinite" dur="4.1s" keyTimes="0;.22799;.415;.593;1" values="1;1;0;1;1"/><path fill="#E0ECEF" stroke="none" d="M6 -6.05Q3.5 -8.5 0 -8.5 -3.5 -8.5 -6 -6.05 -8.5 -3.55 -8.5 0 -8.5 3.5 -6 6 -3.5 8.5 0 8.5 3.5 8.5 6 6 8.5 3.5 8.5 0 8.5 -3.55 6 -6.05Z"/></g><g id="circle12" transform="translate(897.9 701.05)"><animateTransform attributeName="transform" additive="replace" type="translate" repeatCount="indefinite" dur="4.1s" keyTimes="0;.17899;.366;.553;1" values="897.9,701.05;897.9,701.05;897.916,701.077;897.9,701.05;897.9,701.05"/><animateTransform attributeName="transform" additive="sum" type="scale" repeatCount="indefinite" dur="4.1s" keyTimes="0;.17899;.366;.553;1" values="1,1;1,1;.773,.773;1,1;1,1"/><animateTransform attributeName="transform" additive="sum" type="translate" repeatCount="indefinite" dur="4.1s" keyTimes="0;.17899;.366;.553;1" values="0,0;0,0;-.15,-.1;0,0;0,0"/><animate attributeName="opacity" repeatCount="indefinite" dur="4.1s" keyTimes="0;.17899;.366;.553;1" values="1;1;0;1;1"/><path fill="#D6D1F2" stroke="none" d="M7.75 -7.8Q4.55 -11 0 -11 -4.55 -11 -7.8 -7.8 -11 -4.55 -11 0 -11 4.55 -7.8 7.75 -4.55 11 0 11 4.55 11 7.75 7.75 11 4.55 11 0 11 -4.55 7.75 -7.8Z"/></g><g id="circle11" transform="translate(1291.85 64.05)"><animate attributeName="opacity" repeatCount="indefinite" dur="4.1s" keyTimes="0;.12999;.317;.512;1" values="1;1;0;1;1"/><path fill="#D6D1F2" stroke="none" d="M7.75 -7.8Q4.55 -11 0 -11 -4.55 -11 -7.8 -7.8 -11 -4.55 -11 0 -11 4.55 -7.8 7.75 -4.55 11 0 11 4.55 11 7.75 7.75 11 4.55 11 0 11 -4.55 7.75 -7.8Z"/></g><g id="circle10" transform="translate(1499.35 539.6)"><animate attributeName="opacity" repeatCount="indefinite" dur="4.1s" keyTimes="0;.08099;.276;.472;1" values="1;1;0;1;1"/><path fill="#D6D1F2" stroke="none" d="M6 -6.05Q3.5 -8.5 0 -8.5 -3.5 -8.5 -6 -6.05 -8.5 -3.55 -8.5 0 -8.5 3.5 -6 6 -3.5 8.5 0 8.5 3.5 8.5 6 6 8.5 3.5 8.5 0 8.5 -3.55 6 -6.05Z"/></g><g id="circle9" transform="translate(326.5 867.45)"><animate attributeName="opacity" repeatCount="indefinite" dur="4.1s" keyTimes="0;.03299;.22;.398;1" values="1;1;0;1;1"/><path fill="#D6D1F2" stroke="none" d="M6 -6.05Q3.5 -8.5 0 -8.5 -3.5 -8.5 -6 -6.05 -8.5 -3.55 -8.5 0 -8.5 .55 -8.45 1.1 -8.1 3.9 -6 6 -3.5 8.5 0 8.5 3.5 8.5 6 6 8.1 3.9 8.45 1.1 8.5 .55 8.5 0 8.5 -3.55 6 -6.05Z"/></g><g id="circle8" transform="translate(127 386.05)"><animate attributeName="opacity" repeatCount="indefinite" dur="4.1s" keyTimes="0;.179;.366;1" values="1;0;1;1"/><path fill="#D6D1F2" stroke="none" d="M7.75 -7.8Q4.55 -11 0 -11 -4.55 -11 -7.8 -7.8 -11 -4.55 -11 0 -11 4.55 -7.8 7.75 -4.55 11 0 11 4.55 11 7.75 7.75 11 4.55 11 0 11 -4.55 7.75 -7.8Z"/></g><path fill="#E0ECEF" stroke="none" d="M703.45 858.95Q699.95 858.95 697.45 861.4 694.95 863.9 694.95 867.45 694.95 867.996 695 868.5 695.340 871.340 697.45 873.45 699.95 875.95 703.45 875.95 706.95 875.95 709.45 873.45 711.559 871.340 711.9 868.5 711.95 867.996 711.95 867.45 711.95 863.9 709.45 861.4 706.95 858.95 703.45 858.95M1101.4 531.1Q1097.9 531.1 1095.4 533.55 1092.9 536.05 1092.9 539.6 1092.9 543.1 1095.4 545.6 1097.9 548.1 1101.4 548.1 1104.9 548.1 1107.4 545.6 1109.9 543.1 1109.9 539.6 1109.9 536.05 1107.4 533.55 1104.9 531.1 1101.4 531.1M709.45 231.6Q711.95 229.1 711.95 225.6 711.95 222.05 709.45 219.55 706.95 217.1 703.45 217.1 699.95 217.1 697.45 219.55 694.95 222.05 694.95 225.6 694.95 229.1 697.45 231.6 699.95 234.1 703.45 234.1 706.95 234.1 709.45 231.6M1506.65 229.95Q1507.85 228 1507.85 225.6 1507.85 222.05 1505.35 219.55 1502.85 217.1 1499.35 217.1 1495.85 217.1 1493.35 219.55 1493.15 219.75 1493 219.95 1492.4 220.55 1492 221.3 1490.85 223.2 1490.85 225.6 1490.85 227.95 1492 229.9 1492 229.95 1492.05 229.95 1492.45 230.6 1493 231.25 1493.15 231.4 1493.35 231.6 1495.85 234.1 1499.35 234.1 1502.85 234.1 1505.35 231.6 1506.15 230.8 1506.65 229.95Z"/><path fill="#FDFBCD" stroke="none" d="M1092.9 867.45Q1092.9 867.996 1092.95 868.5 1093.290 871.340 1095.4 873.45 1097.9 875.95 1101.4 875.95 1104.9 875.95 1107.4 873.45 1109.509 871.340 1109.85 868.5 1109.9 867.996 1109.9 867.45 1109.9 863.9 1107.4 861.4 1104.9 858.95 1101.4 858.95 1097.9 858.95 1095.4 861.4 1092.9 863.9 1092.9 867.45M526.7 708.8Q529.95 705.6 529.95 701.05 529.95 696.5 526.7 693.25 523.5 690.05 518.95 690.05 514.4 690.05 511.15 693.25 507.95 696.5 507.95 701.05 507.95 705.6 511.15 708.8 514.4 712.05 518.95 712.05 523.5 712.05 526.7 708.8Z"/><path fill="#FEF2FE" stroke="none" d="M134.75 708.8Q138 705.6 138 701.05 138 696.5 134.75 693.25 131.55 690.05 127 690.05 122.45 690.05 119.2 693.25 116 696.5 116 701.05 116 705.6 119.2 708.8 122.45 712.05 127 712.05 131.55 712.05 134.75 708.8M507.95 386.05Q507.95 390.6 511.15 393.8 514.4 397.05 518.95 397.05 523.5 397.05 526.7 393.8 529.95 390.6 529.95 386.05 529.95 381.5 526.7 378.25 523.5 375.05 518.95 375.05 514.4 375.05 511.15 378.25 507.95 381.5 507.95 386.05M1107.4 231.6Q1109.9 229.1 1109.9 225.6 1109.9 222.05 1107.4 219.55 1104.9 217.1 1101.4 217.1 1097.9 217.1 1095.4 219.55 1092.9 222.05 1092.9 225.6 1092.9 229.1 1095.4 231.6 1097.9 234.1 1101.4 234.1 1104.9 234.1 1107.4 231.6Z"/><path fill="#F4F7F7" stroke="none" d="M1300.6 708.8Q1303.85 705.6 1303.85 701.05 1303.85 696.5 1300.6 693.25 1297.4 690.05 1292.85 690.05 1288.3 690.05 1285.05 693.25 1281.85 696.5 1281.85 701.05 1281.85 705.6 1285.05 708.8 1288.3 712.05 1292.85 712.05 1297.4 712.05 1300.6 708.8Z"/></g></svg>