<?xml version="1.0" encoding="UTF-8" standalone="no"?>
<svg width="200px" height="33px" viewBox="0 0 200 33" version="1.1" xmlns="http://www.w3.org/2000/svg" xmlns:xlink="http://www.w3.org/1999/xlink">
    <!-- Generator: Sketch 42 (36781) - http://www.bohemiancoding.com/sketch -->
    <title>logo-purple</title>
    <desc>Created with Sketch.</desc>
    <defs></defs>
    <g id="Iteration--🦄" stroke="none" stroke-width="1" fill="none" fill-rule="evenodd">
        <g id="Spendesk---Invite" transform="translate(-541.000000, -108.000000)" fill="#6E00FF">
            <g id="Group-2" transform="translate(346.000000, 108.000000)">
                <g id="Intro">
                    <g id="logo-purple" transform="translate(195.000000, 0.000000)">
                        <path d="M25.8007014,13.6414238 C25.5085529,13.3492753 25.5085529,12.8751197 25.8007014,12.5829711 L31.2886418,7.09190622 C31.5815715,6.79897652 32.0565082,6.79897652 32.3498284,7.09190622 L43.4381941,18.1794908 C43.8084573,18.5673297 44.037333,19.0914786 44.037333,19.6706982 C44.037333,20.2589011 43.8022081,20.791252 43.4206184,21.1814344 L32.0385418,32.5646826 C31.8971544,32.70607 31.7069454,32.7857469 31.5077532,32.7857469 L20.5217176,32.7857469 C20.1092726,32.7857469 19.774161,32.4502448 19.774161,32.0381903 C19.774161,31.8182977 19.8682891,31.6210584 20.0182691,31.4847484 L31.2991872,20.1968 C31.4429181,20.0538503 31.5182987,19.8628601 31.5186892,19.6699171 C31.5182987,19.4758023 31.4429181,19.2844216 31.2991872,19.1418625 L25.8007014,13.6414238 Z" id="Fill-1"></path>
                        <path d="M18.2363972,19.1487366 C18.5285458,19.4408851 18.5285458,19.9146501 18.2363972,20.2067987 L12.749238,25.6982542 C12.4559178,25.9915744 11.9809811,25.9915744 11.6880514,25.6982542 L0.599685688,14.6106696 C0.22903197,14.2224401 0.000156229175,13.6986818 0.000156229175,13.1190716 C0.000156229175,12.5312593 0.23567171,11.9989084 0.61726147,11.608726 L11.9989474,0.224306038 C12.1399443,0.0840903534 12.3305439,0.00441347419 12.5297361,0.00441347419 L23.5149905,0.00363232832 C23.9286072,0.00363232832 24.2637188,0.338743909 24.2637188,0.751970076 C24.2637188,0.97186264 24.1688096,1.16793025 24.0188296,1.30463078 L12.7379114,12.5921887 C12.5945712,12.7363101 12.5191906,12.9273003 12.5180189,13.1202433 C12.5191906,13.3135769 12.5945712,13.5053482 12.7379114,13.6486885 C12.7390832,13.6494696 18.2363972,19.1487366 18.2363972,19.1487366" id="Fill-3"></path>
                        <path d="M57.1373056,19.3981955 C58.2754351,20.4347761 60.0365285,21.055787 61.726147,21.055787 C62.9357514,21.055787 63.8664867,20.4675842 63.8664867,19.6399602 C63.8664867,17.1219364 55.7566302,18.0175202 55.7566302,12.6326911 C55.7566302,9.42335326 58.8632474,7.4224481 62.1764776,7.4224481 C64.3507971,7.4224481 66.7321203,8.25163445 67.83627,9.11362892 L65.7318631,12.356556 C64.8690874,11.7371073 63.7301768,11.2192076 62.5205724,11.2192076 C61.2785504,11.2192076 60.2423604,11.7027369 60.2423604,12.5662937 C60.2423604,14.7378792 68.3541698,13.8743225 68.3541698,19.6758929 C68.3541698,22.8844495 65.2135728,24.8525466 61.6937295,24.8525466 C59.3799754,24.8525466 56.9291302,24.0569495 54.9622049,22.6098768 L57.1373056,19.3981955 Z" id="Fill-5"></path>
                        <path d="M75.4267426,18.6391561 C76.2902994,19.881178 77.7760388,20.7095832 79.4664385,20.7095832 C81.9848528,20.7095832 83.8838184,18.7758566 83.8838184,16.1531593 C83.8838184,13.7370751 82.1930282,11.5654896 79.5691592,11.5654896 C77.8443891,11.5654896 76.3609931,12.3907702 75.4267426,13.6327921 L75.4267426,18.6391561 Z M70.9417936,7.76873007 L75.2560622,7.76873007 L75.2560622,9.11347269 C76.5664345,8.04330284 78.2580058,7.42229187 80.1561903,7.42229187 C84.7130048,7.42229187 88.3707203,11.2190514 88.3707203,16.1531593 C88.3707203,18.4333241 87.5766856,20.5014078 86.2655322,22.0215177 C84.781355,23.7470689 82.4004224,24.8523903 79.9140351,24.8523903 C78.2236354,24.8523903 76.7734381,24.368861 75.4267426,23.3322805 L75.4267426,32.7896136 L70.9417936,32.7896136 L70.9417936,7.76873007 Z" id="Fill-7"></path>
                        <path d="M101.733939,13.978996 C101.595676,12.4952094 100.249762,11.0450121 98.4207088,11.0450121 C96.5572853,11.0450121 95.0371755,12.460839 94.8309529,13.978996 L101.733939,13.978996 Z M105.911117,21.847869 C104.288286,23.7815956 101.631609,24.8525466 99.0425009,24.8525466 C94.0376993,24.8525466 90.2757008,21.4014441 90.2757008,16.152925 C90.2757008,11.4945615 93.4502776,7.4224481 98.4207088,7.4224481 C103.046655,7.4224481 106.325124,11.3234906 106.325124,15.9822446 C106.325124,16.42906 106.290753,16.8801718 106.221232,17.258637 L94.6247304,17.258637 C94.8657139,19.6055897 96.7631173,21.2260769 99.1444405,21.2260769 C101.043406,21.2260769 102.561954,20.1594222 103.356379,19.2958654 L105.911117,21.847869 Z" id="Fill-9"></path>
                        <path d="M108.914544,24.5061474 L108.914544,7.76853478 L113.229985,7.76853478 L113.229985,9.11366798 C114.505987,8.07630625 116.093666,7.42248716 117.958651,7.42248716 C120.270062,7.42248716 122.376422,8.4567243 123.756707,10.1143158 C124.860856,11.4235163 125.481477,13.1154783 125.481477,15.9822837 L125.481477,24.5061474 L120.995356,24.5061474 L120.995356,15.6374077 C120.995356,13.9790351 120.6165,13.1154783 119.993927,12.4952485 C119.407286,11.9078268 118.510531,11.5652943 117.474731,11.5652943 C115.576938,11.5652943 114.022457,12.7706024 113.401837,13.6325969 L113.401837,24.5061474 L108.914544,24.5061474 Z" id="Fill-11"></path>
                        <path d="M140.846186,13.632675 C139.912717,12.390653 138.429712,11.5653724 136.70416,11.5653724 C134.07951,11.5653724 132.389892,13.7373485 132.389892,16.1530421 C132.389892,18.7757394 134.287686,20.709466 136.807662,20.709466 C138.498062,20.709466 139.983411,19.8810608 140.846186,18.6390389 L140.846186,13.632675 Z M141.017257,24.5062255 L141.017257,23.1607018 C139.636582,24.3351546 138.050465,24.8526637 136.358503,24.8526637 C133.873288,24.8526637 131.527507,23.7469518 130.042939,22.0217911 C128.730614,20.5012907 127.902599,18.4332069 127.902599,16.1530421 C127.902599,11.2189342 131.560705,7.42256527 136.11791,7.42256527 C137.946182,7.42256527 139.53308,7.93968384 140.846186,8.97392098 L140.846186,0.000117171881 L145.332307,0.000117171881 L145.332307,24.5062255 L141.017257,24.5062255 Z" id="Fill-13"></path>
                        <path d="M159.471633,13.978996 C159.333761,12.4952094 157.987066,11.0450121 156.158013,11.0450121 C154.29498,11.0450121 152.77526,12.460839 152.569428,13.978996 L159.471633,13.978996 Z M163.647249,21.847869 C162.026761,23.7815956 159.368522,24.8525466 156.780195,24.8525466 C151.775003,24.8525466 148.013395,21.4014441 148.013395,16.152925 C148.013395,11.4945615 151.187972,7.4224481 156.158013,7.4224481 C160.783568,7.4224481 164.062037,11.3234906 164.062037,15.9822446 C164.062037,16.42906 164.028448,16.8801718 163.959707,17.258637 L152.362815,17.258637 C152.603018,19.6055897 154.501593,21.2260769 156.883306,21.2260769 C158.781491,21.2260769 160.300429,20.1594222 161.094464,19.2958654 L163.647249,21.847869 Z" id="Fill-15"></path>
                        <path d="M168.269445,19.3981955 C169.407965,20.4347761 171.167887,21.055787 172.859068,21.055787 C174.06711,21.055787 174.999017,20.4675842 174.999017,19.6399602 C174.999017,17.1219364 166.887598,18.0175202 166.887598,12.6326911 C166.887598,9.42335326 169.994215,7.4224481 173.307836,7.4224481 C175.482155,7.4224481 177.86426,8.25163445 178.968019,9.11362892 L176.863612,12.356556 C176.001227,11.7371073 174.861535,11.2192076 173.652712,11.2192076 C172.409518,11.2192076 171.3745,11.7027369 171.3745,12.5662937 C171.3745,14.7378792 179.485528,13.8743225 179.485528,19.6758929 C179.485528,22.8844495 176.344931,24.8525466 172.825088,24.8525466 C170.511724,24.8525466 168.06166,24.0569495 166.094344,22.6098768 L168.269445,19.3981955 Z" id="Fill-17"></path>
                        <polygon id="Fill-19" points="190.11251 15.2910867 199.328469 24.5062646 193.288258 24.5062646 186.211858 17.2584026 186.211858 24.5062646 181.724956 24.5062646 181.724956 0.000156229175 186.211858 0.000156229175 186.211858 13.1862892 191.975933 7.76865195 198.292279 7.76865195"></polygon>
                    </g>
                </g>
            </g>
        </g>
    </g>
</svg>