<svg width="556" height="694" viewBox="0 0 556 694" xmlns="http://www.w3.org/2000/svg"><title>Fill 22</title><path d="M179.36 323.717c5.056 5.092 7.844 11.799 7.844 18.948 0 7.22-2.85 14.018-8.027 19.14l-25.47 25.17-266.099 262.859c-4.912 4.85-7.608 11.294-7.608 18.152 0 14.138 11.642 25.654 25.96 25.654l294.704-.03c7.333 0 14.216-2.824 19.394-7.936l327.915-323.848c5.178-5.113 8.027-11.91 8.027-19.14 0-7.22-2.85-14.028-8.027-19.15L367.874 145.717 228.3 7.926C223.122 2.803 216.24 0 208.916 0c-7.322 0-14.206 2.803-19.394 7.926L53.44 142.31l-9.518 9.378c-5.168 5.133-8.017 11.93-8.017 19.15 0 7.231 2.85 14.028 8.027 19.14l100.91 99.654 34.519 34.085z" fill="#AEAEAE" fill-rule="evenodd" opacity=".06"/></svg>