<svg width="132" height="23" viewBox="0 0 132 23" xmlns="http://www.w3.org/2000/svg"><title>Page 1</title><path d="M17.102 9.796a.494.494 0 0 1 0-.699l3.622-3.624a.495.495 0 0 1 .7 0l7.318 7.318a1.42 1.42 0 0 1-.011 1.981l-7.512 7.513a.495.495 0 0 1-.35.146h-7.251a.494.494 0 0 1-.333-.859l7.446-7.45a.492.492 0 0 0 0-.696l-3.63-3.63zM12.11 13.43a.494.494 0 0 1 0 .699l-3.622 3.624a.495.495 0 0 1-.7 0l-7.32-7.318a1.42 1.42 0 0 1 .012-1.98L7.993.94a.497.497 0 0 1 .35-.145h7.25a.494.494 0 0 1 .333.859L8.48 9.104a.498.498 0 0 0-.145.348c0 .127.05.254.145.349l3.63 3.63m25.674.164c.751.684 1.913 1.094 3.028 1.094.799 0 1.413-.388 1.413-.934 0-1.662-5.352-1.071-5.352-4.625 0-2.118 2.05-3.439 4.237-3.439 1.435 0 3.006.548 3.735 1.116l-1.389 2.14c-.57-.408-1.32-.75-2.12-.75-.819 0-1.503.32-1.503.89 0 1.432 5.354.863 5.354 4.692 0 2.117-2.073 3.416-4.396 3.416-1.527 0-3.145-.525-4.443-1.48l1.436-2.12zm12.071-.501a3.24 3.24 0 0 0 2.666 1.367c1.662 0 2.916-1.276 2.916-3.007 0-1.595-1.116-3.028-2.848-3.028a3.4 3.4 0 0 0-2.734 1.364v3.304zm-2.96-7.174h2.847v.887c.865-.706 1.982-1.116 3.234-1.116 3.008 0 5.422 2.506 5.422 5.763 0 1.504-.524 2.87-1.39 3.873-.98 1.139-2.55 1.868-4.191 1.868-1.116 0-2.073-.32-2.962-1.003v6.242h-2.96V5.92zm20.323 4.099c-.092-.98-.98-1.937-2.187-1.937-1.23 0-2.233.935-2.37 1.937h4.557zm2.757 5.193c-1.071 1.276-2.825 1.983-4.534 1.983-3.303 0-5.786-2.278-5.786-5.742 0-3.074 2.095-5.762 5.376-5.762 3.053 0 5.217 2.575 5.217 5.65 0 .295-.023.592-.069.842h-7.653c.159 1.55 1.41 2.619 2.983 2.619 1.253 0 2.255-.704 2.78-1.274l1.686 1.684zm1.982 1.755V5.92h2.848v.887a4.863 4.863 0 0 1 3.121-1.116c1.525 0 2.916.683 3.827 1.777.728.864 1.138 1.98 1.138 3.873v5.626h-2.96v-5.854c0-1.094-.25-1.664-.662-2.074-.387-.387-.979-.613-1.662-.613-1.253 0-2.279.795-2.689 1.364v7.177h-2.961zM93.032 9.79a3.398 3.398 0 0 0-2.734-1.364c-1.732 0-2.847 1.433-2.847 3.027 0 1.731 1.252 3.008 2.915 3.008a3.237 3.237 0 0 0 2.666-1.367V9.79zm.113 7.177v-.888c-.912.775-1.958 1.116-3.075 1.116-1.64 0-3.189-.73-4.168-1.868a5.929 5.929 0 0 1-1.413-3.874c0-3.256 2.414-5.762 5.422-5.762 1.207 0 2.254.342 3.12 1.024V.793h2.962v16.174h-2.848zm12.18-6.948c-.091-.98-.98-1.937-2.187-1.937-1.23 0-2.233.935-2.369 1.937h4.556zm2.755 5.193c-1.07 1.276-2.824 1.983-4.532 1.983-3.303 0-5.786-2.278-5.786-5.742 0-3.074 2.095-5.762 5.376-5.762 3.052 0 5.216 2.575 5.216 5.65 0 .295-.022.592-.067.842h-7.654c.158 1.55 1.411 2.619 2.983 2.619 1.253 0 2.256-.704 2.78-1.274l1.684 1.684zm3.051-1.617c.751.684 1.913 1.094 3.03 1.094.797 0 1.412-.388 1.412-.934 0-1.662-5.354-1.071-5.354-4.625 0-2.118 2.05-3.439 4.237-3.439 1.435 0 3.008.548 3.736 1.116l-1.389 2.14c-.569-.408-1.321-.75-2.119-.75-.82 0-1.504.32-1.504.89 0 1.432 5.354.863 5.354 4.692 0 2.117-2.073 3.416-4.396 3.416-1.527 0-3.144-.525-4.442-1.48l1.435-2.12zm14.416-2.71l6.083 6.082h-3.987l-4.67-4.784v4.784h-2.961V.793h2.961v8.702l3.804-3.575h4.17z" fill="#6E00FF" fill-rule="evenodd"/></svg>