<svg width="573" height="379" viewBox="0 0 573 379" xmlns="http://www.w3.org/2000/svg"><title>icon</title><path d="M176.06 150.794c-2.363-2.383-3.671-5.52-3.671-8.85 0-3.374 1.332-6.553 3.757-8.946l11.906-11.757L312.443-1.542a11.827 11.827 0 0 0 3.557-8.48C316-16.624 310.558-22 303.86-22l-137.759.01a12.84 12.84 0 0 0-9.065 3.702L3.752 132.988A12.464 12.464 0 0 0 0 141.928c0 3.374 1.327 6.553 3.752 8.946l84.185 83.064 65.246 64.364c2.42 2.388 5.638 3.698 9.061 3.698s6.64-1.31 9.061-3.702l63.618-62.767 4.45-4.39c2.415-2.393 3.747-5.564 3.747-8.941 0-3.377-1.332-6.548-3.752-8.94l-47.177-46.55-16.131-15.916zm220.878 67.414c2.363 2.38 3.666 5.512 3.666 8.851 0 3.373-1.332 6.548-3.752 8.94l-11.906 11.758-124.39 122.781a11.827 11.827 0 0 0-3.556 8.479c0 6.604 5.442 11.983 12.135 11.983l137.761-.014c3.428 0 6.646-1.319 9.066-3.707l153.286-151.27c2.42-2.388 3.752-5.563 3.752-8.94 0-3.373-1.332-6.552-3.752-8.945l-84.188-83.059-65.246-64.363c-2.42-2.393-5.638-3.702-9.06-3.702-3.423 0-6.64 1.31-9.066 3.702l-63.613 62.771-4.449 4.38c-2.415 2.398-3.747 5.573-3.747 8.946 0 3.377 1.332 6.552 3.752 8.94l47.171 46.548 16.136 15.921z" fill="#E3E3E3" fill-rule="evenodd" opacity=".213"/></svg>