<svg width="693" height="780" viewBox="0 0 693 780" xmlns="http://www.w3.org/2000/svg"><title>Fill 3</title><path d="M548.66 576.005c8.79 8.79 8.79 23.043 0 31.833L383.572 773.055c-8.825 8.825-23.114 8.825-31.927 0L18.038 439.471C6.886 427.791 0 412.033 0 394.595c0-17.685 7.086-33.702 18.566-45.441L361 6.639c4.242-4.218 9.976-6.615 15.97-6.615L707.473 0C719.918 0 730 10.082 730 22.515c0 6.615-2.855 12.514-7.368 16.627l-339.4 339.6a22.717 22.717 0 0 0-6.616 15.888c.035 5.817 2.303 11.586 6.615 15.899.036.023 165.43 165.476 165.43 165.476" fill="#6E00FF" fill-rule="evenodd" opacity=".03"/></svg>